LX_20210320_001.mat
nRows=22
nColumns=19

name LX_20210320_001.mat
datacolumns 19
datarows 22
range 17.3001425529 17.5101442624
endheader
time	ground_force_vx	ground_force_vy	ground_force_vz	ground_force_px	ground_force_py	ground_force_pz	1_ground_force_vx	1_ground_force_vy	1_ground_force_vz	1_ground_force_px	1_ground_force_py	1_ground_force_pz	ground_torque_x	ground_torque_y	ground_torque_z	1_ground_torque_x	1_ground_torque_y	1_ground_torque_z	
       17.3001425529	      -12.5436139693	       48.4832378286	       14.9389711494	       -0.1204718303	       -0.0186500000	        0.0869036031	       65.8299525472	      268.0957586180	        4.5065467093	       -0.4252939717	       -0.0186500000	       -0.0853788727	      162.4868028616	        0.0000000000	      348.5525347936	     -129.9476526537	       29.8557157747	      155.1708809168	
       17.3101426763	      -40.1064446078	       65.6031345928	       -1.8150459035	       -0.0905135936	       -0.0186500000	        0.0851640260	       49.8557843922	      215.2425878897	        5.9920733845	       -0.4272407576	       -0.0186500000	       -0.0831482065	      180.6551720793	        0.0000000000	      385.1817721658	     -104.8144526034	       19.8702228822	      124.1630680313	
       17.3201427196	      -33.1093593048	       86.5070659401	      -10.2203265893	       -0.0588847676	       -0.0186500000	        0.0911662011	       37.0594449528	      175.9026826761	        8.0643759490	       -0.4314892983	       -0.0186500000	       -0.0819853944	      191.8833288580	        0.0000000000	      416.6184397446	      -85.8608298826	        9.0794310485	      100.7200473035	
       17.3301428029	      -39.1440480432	      111.3321342453	      -17.2308849115	       -0.0277856637	       -0.0186500000	        0.0904374344	       23.5667345774	      142.5683142642	        5.1616623758	       -0.4167168255	       -0.0186500000	       -0.0846527575	      200.3338513931	        0.0000000000	      432.6688753308	      -69.2879289374	        6.9577440993	       83.7157626365	
       17.3401429262	      -55.8914626833	      140.0887255159	      -23.6443686054	        0.0007014651	       -0.0186500000	        0.0880917886	       18.8292054858	      112.1592290871	        0.2257808472	       -0.4108320752	       -0.0186500000	       -0.0882592799	      211.7340200264	        0.0000000000	      449.3912255582	      -54.2430385741	       12.4014460339	       66.6257063260	
       17.3501430095	      -46.2279809962	      172.5264391720	      -28.8031945540	        0.0248634346	       -0.0186500000	        0.0896440214	       12.7740128574	       84.5464373263	        4.6382689829	       -0.4288624957	       -0.0186500000	       -0.0837390241	      227.8373415343	        0.0000000000	      485.7011633978	      -41.3296294433	        3.9487506374	       48.8170169680	
       17.3601430528	      -61.8855593118	      208.0723281685	      -29.1921796539	        0.0435248755	       -0.0186500000	        0.0915598595	        6.7870876796	       64.0627060731	        7.7593336011	       -0.4586619565	       -0.0186500000	       -0.0866135394	      243.1097014486	        0.0000000000	      517.4311241670	      -31.2279307665	       -1.2105929899	       35.2038926640	
       17.3701431761	      -53.4558409803	      245.8734026578	      -25.4800587441	        0.0561205805	       -0.0186500000	        0.0904767698	        9.6096395304	       48.4616529749	        4.6331022561	       -0.2000000000	       -0.0186500000	       -0.1700000000	      255.9139785912	        0.0000000000	      538.5916889687	      -23.3109039842	        1.0166307918	       30.3065968893	
       17.3801432594	      -55.3093512741	      284.9182603660	      -30.0578280968	        0.0626786509	       -0.0186500000	        0.0891910382	        2.3865612609	       30.5481438324	        4.8503167740	       -0.2000000000	       -0.0186500000	       -0.1700000000	      268.7382711530	        0.0000000000	      563.6915121445	      -15.2052859078	       -0.5964524125	       18.1228950527	
       17.3901433027	      -56.1178968010	      324.1769084475	      -24.9661479289	        0.0637359744	       -0.0186500000	        0.0888801246	        2.0185039311	       14.7352351137	        3.1409186530	       -0.2000000000	       -0.0186500000	       -0.1700000000	      277.6196115064	        0.0000000000	      578.3197699206	       -7.7118262868	        0.1666965305	        6.5159432639	
       17.4001433460	      -51.8634725218	      362.7120494118	      -26.2396390537	        0.0602071157	       -0.0186500000	        0.0882949130	        0.5619745726	       10.0573196885	       -0.1434152970	       -0.2000000000	       -0.0186500000	       -0.1700000000	      280.9366474145	        0.0000000000	      579.1341564470	       -4.2144831338	        1.3169160763	        8.8819764833	
       17.4101434293	      -58.0926102963	      399.7413742559	      -27.6622915927	        0.0532317508	       -0.0186500000	        0.0893549974	        1.0468633938	        7.6515049855	       -0.5860436192	       -0.2000000000	       -0.0186500000	       -0.1700000000	      281.4671537407	        0.0000000000	      581.6158693123	       -3.5230971349	        3.6956251559	        5.8945199945	
       17.4201436326	      -47.1465594776	      434.6403512825	      -22.3143381341	        0.0440212445	       -0.0186500000	        0.0939702398	       -0.4245284810	        7.7449310270	        6.6355417472	       -0.2000000000	       -0.0186500000	       -0.1700000000	      279.9944300663	        0.0000000000	      583.4057950362	       -4.1160333852	       -5.8530444046	        7.7345977974	
       17.4301436359	      -54.1113547024	      466.9007165843	      -29.4255808027	        0.0337234405	       -0.0186500000	        0.0913194284	        1.2951099791	        5.9108291901	        0.5262685783	       -0.2000000000	       -0.0186500000	       -0.1700000000	      273.5521726371	        0.0000000000	      558.7729467149	       -3.5542175664	        2.1077740658	        3.0076005820	
       17.4401437192	      -48.5278984223	      496.0816493585	      -32.3828459877	        0.0233212790	       -0.0186500000	        0.0916603910	       -1.9448995446	        7.1857374871	        1.6265826146	       -0.2000000000	       -0.0186500000	       -0.1700000000	      267.5570703530	        0.0000000000	      546.0739726898	       -3.7336457319	        0.7900695483	        5.7901181020	
       17.4501438025	      -41.0123908737	      521.7719582203	      -34.5968153506	        0.0135678696	       -0.0186500000	        0.0943619516	        3.5445618190	        6.2578829702	        4.2589442396	       -0.2000000000	       -0.0186500000	       -0.1700000000	      262.7075693282	        0.0000000000	      540.0873257500	       -3.4279456395	       -3.7135825004	        3.6748116803	
       17.4601439658	      -48.2219935536	      543.5683197683	      -38.0283712050	        0.0049569695	       -0.0186500000	        0.0954077227	       -0.6645688895	        7.4513120916	        1.2149933525	       -0.2000000000	       -0.0186500000	       -0.1700000000	      255.6907885195	        0.0000000000	      521.9091510136	       -3.3512753986	        1.2626834244	        6.9088429785	
       17.4701440491	      -40.4532076609	      561.0864977615	      -27.8380505923	       -0.0022737580	       -0.0186500000	        0.0955916242	       -0.6779343673	        5.8655486464	       -1.4125440486	       -0.2000000000	       -0.0186500000	       -0.1700000000	      248.9268209331	        0.0000000000	      503.5082412996	       -3.1663906423	        2.9045661103	        3.9964783517	
       17.4801440125	      -43.5682544205	      574.0094858973	      -31.4670209455	       -0.0081117505	       -0.0186500000	        0.0934492509	        0.6743635165	        6.4306836799	        5.0295027289	       -0.2000000000	       -0.0186500000	       -0.1700000000	      245.0054753961	        0.0000000000	      494.3430547592	       -3.8190574829	       -1.8352008935	        5.3097717299	
       17.4901440958	      -38.0004098579	      582.1541801707	      -29.1983905828	       -0.0127164375	       -0.0186500000	        0.0947384348	        2.3797832642	        7.0272376858	        3.0490449473	       -0.2000000000	       -0.0186500000	       -0.1700000000	      242.1113979451	        0.0000000000	      492.0804811678	       -3.6050106990	       -1.8324802073	        7.2036870643	
       17.5001441791	      -38.1841444431	      585.5317299614	      -21.8872055795	       -0.0163577488	       -0.0186500000	        0.0943579785	        0.0666476474	        6.6324518157	        0.3597909858	       -0.2000000000	       -0.0186500000	       -0.1700000000	      236.0811530590	        0.0000000000	      471.8950606526	       -3.1728741450	        1.3261596632	        4.9765180922	
       17.5101442624	      -42.2331195259	      584.3841780807	      -25.0463416662	       -0.0193591146	       -0.0186500000	        0.0933647675	        0.1506077698	        9.2432653806	        2.0334754736	       -0.2000000000	       -0.0186500000	       -0.1700000000	      231.3058549648	        0.0000000000	      456.3700208487	       -4.3901100854	       -0.1155528603	        5.6517139306	
